<?xml version="1.0" standalone="no"?>
<!DOCTYPE svg PUBLIC "-//W3C//DTD SVG 20010904//EN"
 "http://www.w3.org/TR/2001/REC-SVG-20010904/DTD/svg10.dtd">
<svg version="1.0" xmlns="http://www.w3.org/2000/svg"
 width="256.000000pt" height="256.000000pt" viewBox="0 0 256.000000 256.000000"
 preserveAspectRatio="xMidYMid meet">
<metadata>
Created by potrace 1.11, written by Peter Selinger 2001-2013
</metadata>
<g transform="translate(0.000000,256.000000) scale(0.100000,-0.100000)"
fill="#000000" stroke="none">
<path d="M1649 2556 c-2 -3 -33 -5 -69 -7 -211 -8 -378 -111 -518 -320 -40
-60 -62 -82 -100 -102 l-50 -26 -12 52 c-13 54 -43 122 -59 131 -12 8 -61 -32
-61 -50 0 -8 10 -36 21 -62 21 -45 51 -143 46 -149 -2 -1 -23 -5 -47 -8 -95
-11 -127 -17 -189 -36 -200 -63 -364 -217 -423 -399 -29 -90 -32 -254 -8 -371
36 -170 121 -360 244 -549 54 -82 225 -303 283 -365 10 -11 53 -62 96 -113
122 -144 171 -172 302 -176 102 -3 187 19 263 69 237 158 361 453 360 861 -1
220 -45 432 -128 611 -49 105 -89 162 -166 237 -104 103 -257 180 -419 213
-75 15 -90 21 -93 38 -4 29 123 93 198 100 30 3 71 7 90 10 19 2 62 7 95 10
108 10 433 78 580 120 28 8 104 28 170 44 199 49 320 82 328 91 12 11 -242 85
-360 105 -128 22 -214 32 -281 34 -42 1 -79 4 -83 6 -3 3 -8 3 -10 1z"/>
</g>
</svg>
